<?xml version="1.0" encoding="utf-8" ?><svg xmlns="http://www.w3.org/2000/svg" xmlns:xlink="http://www.w3.org/1999/xlink" width="1344" height="768" viewBox="0 0 1344 768"><path fill="white" fill-opacity="0.0078431377" d="M0 0L1344 0L1344 768L0 768L0 0ZM535.145 494.038C597.017 489.916 643.86 436.448 639.823 374.555C635.786 312.662 582.395 265.735 520.511 269.689C458.509 273.651 411.484 327.18 415.529 389.192C419.574 451.203 473.154 498.167 535.145 494.038ZM249.831 493.557C311.44 487.568 356.597 432.859 350.812 371.216C345.027 309.573 290.48 264.226 228.834 269.81C166.9 275.42 121.307 330.289 127.119 392.219C132.931 454.149 187.936 499.573 249.831 493.557ZM1116.1 493.906C1177.88 487.787 1222.91 432.608 1216.55 370.841C1210.18 309.073 1154.84 264.246 1093.11 270.862C1031.73 277.44 987.227 332.417 993.557 393.835C999.887 455.252 1054.67 499.991 1116.1 493.906ZM705.108 376.927C699.803 376.774 701.389 376.356 700.783 369.956C699.921 374.827 699.804 390.238 700.815 395.195C700.981 393.727 701.23 388.472 702.273 387.879C702.807 387.949 704.66 388.436 705.201 388.577C708.845 449.397 760.28 496.233 821.158 494.167C882.037 492.1 930.18 441.884 929.693 380.958C929.206 320.031 880.267 270.591 819.363 269.498C758.46 268.405 707.779 316.058 705.108 376.927ZM513.433 233.01C523.204 233.143 532.976 233.128 542.746 232.963C542.83 223.33 542.815 213.695 542.701 204.062C535.724 203.587 520.559 203.39 513.555 203.732C513.235 212.815 513.26 223.911 513.433 233.01ZM810.558 544.445L807.801 543.753L807.409 543.655C799.729 541.671 799.722 542.504 794.565 547.423C789.183 536.85 788.234 537.849 776.349 538.576C776.274 544.342 776.268 550.109 776.331 555.876C780.443 555.999 785.778 556.5 789.482 554.565C790.363 554.104 794.626 550.231 795.064 550.864C796.871 553.476 797.324 555.828 801.28 556.039C803.667 556.167 806.281 555.389 808.688 554.514L811.068 554.598C812.318 552.726 812.375 553.322 814.502 553.819C820.167 555.142 823.165 550.328 814.449 550.351L811.445 549.064C810.097 546.06 811.489 545.918 810.558 544.445ZM858.652 556.658C860.57 553.923 860.87 547.407 859.021 544.508C856.473 540.512 851.7 544.623 850.69 544.741C850.436 544.621 850.391 544.465 850.274 544.208C850.282 543.939 850.149 543.28 849.785 543.275C847.95 543.25 847.948 546.671 847.776 547.934L846.034 545.975C845.797 546.331 845.644 546.78 845.481 547.18L844.271 547.629C843.857 545.695 844.78 542.96 842.178 543.159C837.446 543.521 836.54 541.759 831.472 544.456C830.099 544.262 828.909 544.075 827.548 543.802C827.612 547.973 827.602 552.145 827.517 556.316C828.884 556.602 829.621 556.357 830.09 557.682C833.497 561.162 840.963 563.578 842.973 557.933C845.229 556.935 845.943 556.338 848.424 555.827C852.615 555.501 849.572 549.91 850.199 547.515C851.532 542.418 862.094 547.244 856.517 548.409C855.155 549.054 850.739 550.516 852.29 552.268C854.145 554.364 856.075 555.816 858.652 556.658ZM989.38 378.085L985.048 379.588L985.015 380L989.313 380.846C989.325 379.926 989.347 379.005 989.38 378.085ZM205.259 546.061L205.684 543.741C203.364 542.083 203.712 542.069 200.882 542.176C201.07 543.856 200.386 550.066 203.319 547.695C203.667 548.339 203.967 549.164 204.555 549.546C204.342 549.549 213.631 547.673 213.273 547.95C216.571 545.398 206.203 546 205.259 546.061ZM216.376 556.702L217.034 556.944L217.912 557.96C221.513 556.937 224.933 558.212 227.486 556.437C227.494 556.371 227.502 556.305 227.51 556.239C227.212 555.968 222.885 555.471 221.917 555.245C220.545 553.749 220.089 553.312 218.994 551.595C219.199 548.918 219.35 547.92 219.816 545.339C218.706 545.287 217.596 545.226 216.487 545.157C215.773 547.049 216.021 549.631 215.988 551.787C216.051 553.681 216.124 554.823 216.376 556.702ZM553.953 554.755L555.344 554.087L557.934 554.294C562.083 554.886 560.05 557.033 566.282 555.463L567.754 554.629C572.865 555.472 575.087 557.887 579.586 553.709C579.74 553.223 579.822 552.955 580.02 552.48C580.184 550.014 580.597 546.816 578.862 544.848C576.525 542.197 571.543 542.144 568.996 544.402C567.83 544.227 566.666 544.043 565.503 543.849C564.178 543.519 562.447 543.243 561.385 542.965C560.57 541.722 561.421 540.08 559.98 539.319C557.329 540.564 560.355 541.541 556.894 543.637C556.569 543.187 556.039 542.932 555.485 542.958C554.931 542.984 554.427 543.288 554.146 543.765C551.605 547.743 554.358 550.864 551.864 553.489C550.159 555.283 545.995 554.437 544.644 552.356C542.465 548.999 546.856 542.181 541.499 543.901L540.506 544.326C536.669 545.795 533.618 540.467 527.981 543.89C526.603 543.195 528.509 537.722 525.766 537.698L525.099 537.668L522.096 537.661C522.033 538.788 522.462 539.815 522.727 540.9C521.178 540.802 519.882 540.664 518.344 540.463C517.741 541.184 517.413 541.656 516.869 542.418C518.852 542.671 519.82 542.76 521.77 543.34L522.587 543.345C523.264 543.411 524.842 543.388 525.362 543.752C525.791 544.865 525.511 553.504 525.684 555.736C527.092 555.953 527.163 556.034 527.806 554.836C528.372 554.649 531.103 556.38 533.52 555.999C538.043 555.652 540.488 549.78 544.424 555.191C545.458 556.613 552.926 555.491 553.953 554.755ZM212.461 554.887C216.058 549.457 212.33 550.186 208.098 550.33C204.183 554.019 210.121 554.629 212.461 554.887ZM498.761 555.152L501.129 553.571C501.844 552.912 503.182 549.005 500.61 549.143C504.422 545.408 500.867 545.368 498.098 544.697C497.382 544.754 494.126 544.86 493.782 545.045C492.34 547.362 494.317 558.068 496.919 552.83C497.654 554.127 497.645 554.19 498.761 555.152ZM227.171 229.069C236.064 229.655 240.185 229.517 248.965 229.352C249.688 226.001 249.299 211.492 249.245 207.537C241.487 207.193 234.805 207.412 227.13 207.495C227.237 214.868 227.177 221.73 227.171 229.069ZM828.706 229.238C829.684 227.092 829.232 211.063 829.234 207.514C822.484 207.329 814.025 206.941 807.416 207.433C807.731 214.951 807.527 221.706 807.434 229.178C813.08 229.534 822.842 229.431 828.706 229.238ZM1094.6 207.486C1094.64 214.592 1094.63 221.699 1094.55 228.805C1102.11 229.582 1108.8 229.964 1115.86 227.273C1116.45 225.687 1116.23 210.208 1116.23 207.474C1108.9 207.292 1101.88 207.442 1094.6 207.486ZM234.035 551.93C234.421 555.131 232.404 553.902 233.502 557.114C234.838 556.563 236.168 555.997 237.492 555.417C241.023 554.634 237.97 549.282 239.581 546.782C241.052 544.501 244.311 544.815 246.458 546.104C248.84 549.572 245.323 552.554 248.695 554.944L252.049 554.048C260.996 557.746 258.937 555.082 266.008 554.515L267.027 554.56C272.091 557.396 275.5 556.544 280.367 553.978L282.199 553.954C281.476 550.6 282.297 549.006 279.186 548.608C280.589 547.773 281.012 548.157 281.983 546.869C282.635 545.79 282.971 545.237 283.721 544.242C281.747 544.315 281.205 544.344 279.226 544.095C271.562 541.47 267.349 546.132 264.787 544.875C257.872 541.482 258.82 541.884 251.474 546.403C249.149 547.833 247.527 543.558 246.209 543.101C242.995 541.987 240.807 544.954 237.177 543.349C237.065 545.904 237.074 548.266 237.034 550.806L234.035 551.93ZM509.276 543.682L508.493 543.671C506.77 544.098 506.776 544.307 505.854 545.857C502.683 543.022 504.357 551.543 504.043 553.017C503.472 555.69 512.831 550.453 509.927 547.055C511.086 545.092 511.284 544.715 509.276 543.682ZM202.471 555.362L204.791 555.278C204.467 554.188 204.052 550.835 203.843 550.627C201.711 548.508 199.821 552.912 202.471 555.362ZM487.736 555.427C488.64 553.592 488.858 553.743 490.962 553.623C491.946 551.24 493.381 545.681 490.542 544.281C486.867 544.76 488.047 544.535 484.683 545.986C485.935 549.762 487.243 551.227 487.736 555.427ZM1063.91 538.423C1063.93 543.008 1063.54 550.884 1064.22 554.997C1064.7 557.845 1076.7 554.38 1078.59 553.396C1080.53 550.159 1081.65 548.495 1080.54 544.487C1078.44 536.86 1069.89 538.399 1063.91 538.423ZM480.216 543.411C479.845 543.985 479.474 544.559 479.103 545.133C478.929 546.019 476.504 546.955 476.675 547.681C476.846 548.409 480.87 549.011 481.544 549.168C484.528 549.005 481.168 544.483 480.216 543.411ZM1126.12 545.137C1124.53 545.771 1123.41 547.231 1123.21 548.938C1123.02 550.645 1123.77 552.322 1125.18 553.302C1126.59 554.283 1128.43 554.409 1129.96 553.631C1132.18 552.501 1133.12 549.824 1132.1 547.552C1131.07 545.28 1128.44 544.216 1126.12 545.137ZM293.781 553.689C294.245 552.693 294.702 551.68 295.198 550.701C293.751 550.268 284.134 549.274 283.847 551.075C283.765 551.582 283.908 552.099 284.239 552.49C286.46 555.158 290.865 553.956 293.781 553.689ZM515.59 553.492C517.443 553.573 517.852 553.023 519.532 553.03C519.659 551.613 520.079 547.686 519.095 546.584C518.129 545.502 513.132 545.229 512.956 547.351C512.441 553.549 515.853 547.222 515.59 553.492ZM1088.1 542.836C1085.91 544.364 1083.92 545.454 1083.46 548.426C1083.2 550.174 1083.65 551.953 1084.71 553.364C1088.62 558.555 1101.08 553.54 1092.97 553.756C1091.27 553.802 1084.45 554.746 1085.64 550.075C1086.07 549.708 1086.5 550.115 1086.97 550.356C1089.33 551.558 1095.29 549.3 1096.73 551.622C1097.4 552.711 1098.68 551.79 1098.97 552.282C1099.82 553.738 1098.54 559.002 1099.84 559.985C1100.51 560.064 1100.71 559.71 1101.05 559.174C1101.11 558.335 1101.23 554.473 1101.35 554.104C1101.04 554.169 1104.16 556.092 1108.09 555.794C1113.41 555.392 1114.82 546.707 1111.03 544.2C1109.47 543.186 1107.57 542.84 1105.75 543.24C1104.09 543.617 1103.17 544.082 1101.89 545.167C1101.63 545.388 1101.23 545.766 1100.85 545.798C1100.84 545.799 1100.83 545.794 1100.83 545.791C1100.73 545.383 1100.9 544.732 1101.17 544.481C1102.19 543.531 1100.52 542.907 1099.86 543.523C1098.51 544.77 1100.31 547.191 1097.09 546.956C1096.7 546.927 1096 545.778 1095.87 545.476C1094.18 542.472 1091 542.747 1088.1 542.836ZM400.891 382.952C399.892 382.569 398.991 382.06 398.045 381.564C389.853 389.31 381.331 397.85 374.041 406.332C373.712 406.714 375.562 408.007 376.008 407.564C383.054 400.549 394.59 390.028 400.891 382.952ZM820.61 549.091C821.612 548.369 822.626 547.664 823.652 546.978C821.941 546.074 817.923 546.289 816.881 547.386C816.687 548.209 819.894 548.862 820.61 549.091ZM221.748 551.018C224.441 550.207 227.698 549.367 230.508 550.014C230.664 544.601 228.525 546.203 224.082 545.934C221.437 545.774 221.605 549.498 221.748 551.018ZM178.934 538.338L179.098 555.873C186.242 556.032 191.231 557.038 195.551 550.314C195.595 548.102 195.044 543.079 195.51 542.09C193.593 541.668 193.607 540.589 191.888 539.678C188.221 537.735 183.07 538.298 178.934 538.338Z"/><path fill="#3B30E9" d="M645.205 381.379C644.923 403.261 638.591 425.895 626.325 444.137C608.539 470.256 581.148 488.28 550.128 494.277C519.101 500.238 486.975 493.723 460.719 476.145C435.19 458.948 417.665 432.189 412.101 401.91C406.833 372.693 413.389 342.579 430.326 318.198C447.925 292.309 475.233 274.627 506.053 269.165C537.623 263.382 570.195 270.439 596.544 288.77C615.631 301.988 633.574 325.433 639.91 347.876C642.39 356.661 643.26 363.797 644.864 372.61C645.045 374.632 644.834 376.619 645.914 377.928C654.77 378.927 677.619 378.157 687.607 378.166C687.42 380.22 686.657 380.148 688.242 381.381C677.819 380.842 655.703 380.912 645.205 381.379ZM535.145 494.038C597.017 489.916 643.86 436.448 639.823 374.555C635.786 312.662 582.395 265.735 520.511 269.689C458.509 273.651 411.484 327.18 415.529 389.192C419.574 451.203 473.154 498.167 535.145 494.038Z"/><path fill="#3B30E9" d="M522.866 373.47C528.469 370.555 532.214 372.257 538.316 372.742L538.957 374.041C540.601 379.134 544.755 382.149 541.657 388.768C540.903 390.379 540.004 392.111 539.283 393.725C538.221 394.318 537.97 394.534 536.828 394.873C530.462 397.321 527.392 395.898 521.71 394.167C521.025 393.453 520.913 393.443 520.538 392.553C516.61 383.04 517.101 382.904 521.544 374.636C522.036 374.152 522.282 373.872 522.866 373.47Z"/><path fill="#3B30E9" d="M564.885 419.833C567.296 419.102 570.039 418.671 571.934 420.058C582.847 428.046 565.998 441.167 561.934 426.68C561.77 426.093 562.52 422.916 562.68 421.968C563.943 421.098 564.018 421.072 564.885 419.833Z"/><path fill="#3B30E9" d="M491.93 345.912C491.541 346.078 491.154 346.249 490.769 346.424C479.229 351.66 475.938 333.969 486.607 333.572C492.718 333.344 493.709 338.803 493.448 343.825C492.676 344.711 492.519 344.892 491.93 345.912Z"/><path fill="#3B30E9" d="M562.618 345.293C562.258 342.078 561.407 337.006 563.909 334.535C572.808 325.746 581.976 343.842 568.906 346.101C565.145 345.257 566.659 345.106 562.618 345.293Z"/><path fill="#3B30E9" d="M494.277 421.52C494.106 424.587 493.246 429.113 490 430.222C476.588 434.806 477.503 410.773 491.978 418.932C492.773 419.857 493.611 420.49 494.277 421.52Z"/><path fill="#3B5BFF" fill-opacity="0.98431373" d="M491.93 345.912C492.519 344.892 492.676 344.711 493.448 343.825C497.091 347.3 501.716 352.623 505.564 356.338C509.24 359.888 520.306 369.837 522.866 373.47C522.282 373.872 522.036 374.152 521.544 374.636C517.441 371.486 495.649 350.173 491.93 345.912Z"/><path fill="#3B5BFF" fill-opacity="0.97647059" d="M520.538 392.553C520.913 393.443 521.025 393.453 521.71 394.167C520.855 395.958 497.405 418.064 494.277 421.52C493.611 420.49 492.773 419.857 491.978 418.932C497.459 416.413 514.115 397.735 520.538 392.553Z"/><path fill="#3B5BFF" fill-opacity="0.97254902" d="M538.316 372.742C538.551 370.758 561.298 345.702 562.618 345.293C566.659 345.106 565.145 345.257 568.906 346.101C567.953 346.257 564.323 347.104 563.816 347.606C556.054 355.286 545.977 366.013 538.957 374.041L538.316 372.742Z"/><path fill="#3B5BFF" fill-opacity="0.98431373" d="M536.828 394.873C537.97 394.534 538.221 394.318 539.283 393.725C543.473 398.349 560.644 417.501 564.885 419.833C564.018 421.072 563.943 421.098 562.68 421.968C559.775 419.427 555.204 414.39 552.633 411.465C548.107 406.315 541.081 399.935 536.828 394.873Z"/><path fill="#9CA3B0" d="M354.782 380.716C355.369 444.487 304.349 496.755 240.599 497.693C176.849 498.632 124.313 447.888 123.023 384.128C121.734 320.369 172.175 267.541 235.911 265.9C299.647 264.259 352.739 314.42 354.731 378.162C354.757 379.013 354.775 379.865 354.782 380.716ZM249.831 493.557C311.44 487.568 356.597 432.859 350.812 371.216C345.027 309.573 290.48 264.226 228.834 269.81C166.9 275.42 121.307 330.289 127.119 392.219C132.931 454.149 187.936 499.573 249.831 493.557Z"/><path fill="#ADADB0" fill-opacity="0.96862745" d="M235.773 382.129C240.692 381.947 236.397 369.821 239.099 368.702C240.724 369.752 239.965 379.639 239.98 381.927C239.394 381.902 259.742 381.699 255.584 383.306C252.935 384.33 243.49 383.944 239.847 384.041C239.985 386.851 240.112 389.749 240.025 392.535C239.974 394.151 240.217 396.038 239.487 397.382C239.301 397.725 238.555 397.806 238.323 397.414C237.239 393.992 237.755 387.529 238.018 384.136C234.956 383.776 224.273 383.618 223.409 382.662C227.608 382.764 231.648 382.886 235.773 382.129Z"/><path fill="#FEFEFE" fill-opacity="0.38039216" d="M223.409 382.662C226.894 381.758 232.107 381.978 235.773 382.129C231.648 382.886 227.608 382.764 223.409 382.662Z"/><path fill="#ADADB0" fill-opacity="0.98823529" d="M236.406 338.386C237.678 338.091 238.875 337.807 240.135 337.462L240.605 337.839C241.153 338.269 240.909 338.167 241.34 338.293C239.641 339.584 240.077 338.887 239.516 340.827C241.965 346.198 247.787 344.296 251.868 345.664C262.455 349.211 270.401 356.816 275.811 366.391C279.118 372.245 276.658 381.533 283.36 382.168L283.279 382.618L283.449 384.246C279.575 383.909 274.269 383.862 270.281 383.713C269.337 383.145 269.283 383.23 268.156 383.228L268.121 382.946C269.656 382.091 274.709 382.12 276.781 382.028C275.298 360.964 260.815 346.816 239.683 345.829C239.62 348.373 239.721 351.662 238.896 353.989C238.076 351.813 238.303 348.27 238.307 345.806C216.018 346.525 205.654 361.664 201.444 381.634C205.727 382.171 208.942 381.927 213.269 383.235C211.604 383.222 210.241 382.831 208.849 383.783L201.066 384.076C203.054 393.175 203.947 394.539 207.916 402.924C211.271 410.013 232.252 424.461 237.705 418.198C238.157 415.777 238.131 411.27 239.177 410.484C240.433 412.297 240.072 418.084 240.064 420.586C253.135 418.531 260.747 415.301 269.374 404.649C274.496 398.324 275.523 388.75 277.171 387.068L278.38 387.922C278.418 392.053 277.65 394.268 279.862 397.828C280.714 399.499 280.657 398.664 280.098 400.406L278.275 401.444L277.966 401.048C274.746 396.874 275.778 401.155 272.782 404.203C272.364 404.944 272.003 405.662 271.616 406.419C264.32 416.006 253.876 421.045 242.128 422.666C238.917 423.109 239.993 424.101 240.121 427.56L240.162 431.576C240.194 433.708 240.166 434.087 239.619 436.144L238.931 436.083C238.368 434.773 237.741 433.38 237.244 432.052L237.035 431.485L234.935 430.939C236.365 430.762 236.589 430.81 237.758 429.904L237.791 427.629C238.05 422.297 239.072 423.299 233.74 422.238C222.109 419.924 214.745 415.407 206.879 406.651C206.318 405.835 205.735 405.035 205.131 404.251C204.288 402.548 203.363 400.833 202.211 399.321C201.149 395.912 201.23 395.084 198.965 392.307C199.836 390.84 199.989 384.75 198.261 383.246C196.746 382.374 196.089 382.266 194.369 381.902L194.282 381.334C198.071 381.416 199.75 383.12 199.562 378.504C199.48 376.489 200.149 375.159 199.835 372.89C201.681 370.503 201.521 369.993 202.519 367.17C207.187 357.441 214.863 349.02 225.48 345.798C229.573 344.555 237.424 344.259 238.511 339.869C238.03 339.032 237.298 338.823 236.406 338.386Z"/><path fill="#C8A96A" d="M189.949 381.905C193.379 353.723 209.543 338.136 237.349 334.474C237.476 332.947 237.582 332.111 237.901 330.613L239.21 330.203L240.129 330.802L240.196 333.762C241.141 335.131 251.576 336.419 253.768 337.114C260.463 339.203 266.657 342.648 271.964 347.234C281.437 355.562 286.782 368.4 287.682 380.844C287.563 381.592 287.537 381.563 287.13 382.21L283.279 382.618L283.36 382.168C284.202 374.002 279.674 361.945 274.547 355.767C265.263 344.58 255.182 340.066 241.34 338.293C240.909 338.167 241.153 338.269 240.605 337.839L240.135 337.462C238.875 337.807 237.678 338.091 236.406 338.386C223.382 339.498 213.086 345.261 204.058 354.906C202.428 356.647 199.623 360.686 199.497 363.15C197.833 364.416 197.641 365.688 196.963 367.69C194.962 371.659 194.25 376.923 194.282 381.334L194.369 381.902C192.678 381.986 191.678 382.023 189.949 381.905Z"/><path fill="#C8A96A" d="M190.106 384.231C191.621 384.132 192.831 383.607 194.008 384.592C194.517 389.208 194.596 393.186 197.053 397.138C197.644 395.509 198.282 393.898 198.965 392.307C201.23 395.084 201.149 395.912 202.211 399.321L199.714 402.456C199.472 404.182 200.821 405.593 201.792 407.255C202.609 408.338 203.361 409.465 204.165 410.555C214.409 422.639 222.617 425.283 237.791 427.629L237.758 429.904C236.589 430.81 236.365 430.762 234.935 430.939C208.577 428.079 192.25 410.315 190.106 384.231Z"/><path fill="#FEFEFE" d="M198.965 392.307C201.23 395.084 201.149 395.912 202.211 399.321L199.714 402.456C197.826 401.065 197.128 399.531 197.053 397.138C197.644 395.509 198.282 393.898 198.965 392.307Z"/><path fill="#C8A96A" d="M283.279 382.618L287.13 382.21C287.206 383.455 287.295 384.065 287.559 385.289C287.398 396.544 280.72 410.263 272.643 417.879C262.606 427.342 253.117 429.866 240.162 431.576L240.121 427.56L243.115 427.263C255.852 425.874 265.989 420.542 273.946 410.468C274.279 410.118 274.559 409.817 274.881 409.453C276.199 407.18 279.178 403.998 278.275 401.444L280.098 400.406C280.657 398.664 280.714 399.499 279.862 397.828C280.425 397.634 280.86 397.164 281.351 396.755C283.1 392.436 283.519 388.887 283.449 384.246L283.279 382.618Z"/><path fill="#C8A96A" d="M182.683 325.596C188.557 325.398 195.473 324.959 201.312 325.678C201.861 325.746 201.712 329.08 201.354 329.112C196.437 329.555 191.469 329.259 186.363 329.574C186.417 334.201 186.46 339.111 186.168 343.703C186.128 344.344 182.732 344.17 182.696 343.686C182.272 337.895 182.357 331.391 182.683 325.596Z"/><path fill="#C8A96A" d="M182.476 422.483C183.278 422.58 185.643 422.659 186.199 422.99C186.528 423.586 186.48 435.468 186.513 437.129C191.345 437.262 196.218 437.52 201.028 437.864C201.386 437.89 202.321 440.605 202.464 440.958C196.296 441.25 188.798 441.154 182.551 441.093C182.489 434.89 182.464 428.686 182.476 422.483Z"/><path fill="#C8A96A" d="M291.069 325.228C293.418 325.236 294.955 325.297 297.302 325.483C297.253 331.528 297.354 337.685 297.101 343.694C297.083 344.104 294.172 344.417 293.994 343.842C293.38 341.852 293.812 337.999 293.823 335.867C293.811 334.405 293.929 330.63 293.794 329.436C288.911 329.253 284.063 329.275 279.245 329.115C278.821 329.101 278.503 326.294 279.074 326.056C281.618 324.999 288.334 325.298 291.069 325.228Z"/><path fill="#C8A96A" d="M293.913 422.227C294.305 422.343 296.993 423.001 297.001 423.089C297.501 428.833 297.248 435.374 297.246 441.167L280.711 441.198C273.665 440.95 281.596 435.78 285.94 437.767C286.201 437.887 292.694 437.621 293.805 437.568C293.943 432.278 293.97 427.516 293.913 422.227Z"/><defs><linearGradient id="gradient_0" gradientUnits="userSpaceOnUse" x1="195.92194" y1="384.71884" x2="198.06462" y2="394.90869"><stop offset="0" stop-color="white" stop-opacity="0"/><stop offset="1" stop-color="white" stop-opacity="0.039215688"/></linearGradient></defs><path fill="url(#gradient_0)" d="M198.261 383.246C199.989 384.75 199.836 390.84 198.965 392.307C198.282 393.898 197.644 395.509 197.053 397.138C194.596 393.186 194.517 389.208 194.008 384.592C195.61 383.857 196.585 383.671 198.261 383.246Z"/><path fill="#FEFEFE" fill-opacity="0.98823529" d="M196.963 367.69C197.641 365.688 197.833 364.416 199.497 363.15C200.576 364.719 201.305 365.701 202.519 367.17C201.521 369.993 201.681 370.503 199.835 372.89C198.789 370.726 198.203 369.736 196.963 367.69Z"/><path fill="#B89360" d="M190.106 384.231C184.77 383.869 184.321 382.177 189.949 381.905C191.678 382.023 192.678 381.986 194.369 381.902C196.089 382.266 196.746 382.374 198.261 383.246C196.585 383.671 195.61 383.857 194.008 384.592C192.831 383.607 191.621 384.132 190.106 384.231Z"/><path fill="#FEFEFE" fill-opacity="0.3764706" d="M205.131 404.251C205.735 405.035 206.318 405.835 206.879 406.651C206.104 407.977 205.072 409.292 204.165 410.555C203.361 409.465 202.609 408.338 201.792 407.255C203.677 405.911 203.676 406.008 205.131 404.251Z"/><path fill="#B89360" d="M287.682 380.844C288.097 382.536 289.587 382.302 291.192 382.666L290.17 383.945C288.705 384.217 288.356 383.978 287.559 385.289C287.295 384.065 287.206 383.455 287.13 382.21C287.537 381.563 287.563 381.592 287.682 380.844Z"/><path fill="#FEFEFE" fill-opacity="0.45882353" d="M271.616 406.419C272.003 405.662 272.364 404.944 272.782 404.203C273.611 406.233 274.235 407.306 274.881 409.453C274.559 409.817 274.279 410.118 273.946 410.468C272.622 408.765 272.355 408.502 271.616 406.419Z"/><path fill="#B89360" fill-opacity="0.89803922" d="M291.192 382.666C291.792 382.563 291.925 382.47 292.432 382.612C292.711 382.884 292.649 382.73 292.688 383.039C292.287 384.03 291.046 383.874 290.17 383.945L291.192 382.666Z"/><path fill="#9CA3B0" fill-opacity="0.57254905" d="M208.849 383.783C210.241 382.831 211.604 383.222 213.269 383.235C211.116 383.946 211.05 384.109 208.849 383.783Z"/><path fill="#9CA3B0" fill-opacity="0.50980395" d="M268.156 383.228C269.283 383.23 269.337 383.145 270.281 383.713C269.05 383.782 269.133 383.839 268.156 383.228Z"/><path fill="#FF4500" d="M989.38 378.085C991.671 314.431 1044.92 264.573 1108.57 266.485C1172.22 268.397 1222.38 321.36 1220.85 385.037C1219.32 448.713 1166.67 499.203 1103 498.05C1039.33 496.898 988.541 444.537 989.313 380.846C989.325 379.926 989.347 379.005 989.38 378.085ZM1116.1 493.906C1177.88 487.787 1222.91 432.608 1216.55 370.841C1210.18 309.073 1154.84 264.246 1093.11 270.862C1031.73 277.44 987.227 332.417 993.557 393.835C999.887 455.252 1054.67 499.991 1116.1 493.906Z"/><path fill="#FF4500" d="M1108.45 367.487L1123.54 367.531L1123.57 399.558C1118.43 399.536 1113.57 399.35 1108.46 399.262C1108.75 387.68 1108.45 378.842 1108.45 367.487Z"/><path fill="#FF4500" d="M1099.47 335.663C1101.74 335.542 1103.49 335.255 1105.55 336.261L1105.89 337.345C1103.6 340.476 1091.35 339.814 1086.66 342.129C1061.09 354.748 1051.42 377.59 1063.17 404.051L1062.43 405.73L1061.11 406.21C1057.89 404.562 1054.55 392.228 1054.32 388.467C1052.61 360.377 1071.88 338.621 1099.47 335.663Z"/><path fill="#FF4500" d="M1151.76 358.939C1155.9 363.464 1157.72 374.276 1158.07 380.441C1158.76 392.863 1154.52 405.055 1146.28 414.369C1135.9 425.912 1123.8 429.6 1108.97 430.415C1107.53 429.477 1108.1 430.094 1107.36 428.364C1108.53 426.133 1120.3 425.703 1125.75 423.647C1133.14 420.878 1139.7 416.259 1144.8 410.232C1152.85 400.536 1156.1 386.56 1153.62 373.904C1153.01 370.821 1150.31 364.765 1149.77 361.45C1149.59 360.352 1150.78 359.758 1151.76 358.939Z"/><path fill="#FF4500" d="M1090.39 379.816C1095.42 379.85 1100.1 379.914 1105.13 380.268C1105.07 386.811 1105.05 392.536 1105.18 399.121C1099.58 399.297 1096.22 399.349 1090.58 399.147C1090.53 392.607 1090.67 386.373 1090.39 379.816Z"/><path fill="#FF4500" d="M1074.56 426.124C1073.47 424.898 1071.08 423.001 1072.68 421.211C1075.45 418.112 1079.35 413.917 1083.08 412.136C1084.56 411.432 1085.12 414.385 1083.6 415.045C1083.26 415.211 1080.05 418.683 1080.39 419.111C1082.51 421.848 1095.3 417.073 1093.31 423.708C1093.06 424.444 1081.63 424.467 1079.93 424.538C1080.49 425.982 1081.63 428.431 1082.92 429.224C1086.16 431.221 1084.64 435.336 1082.12 433.308C1079.88 431.506 1077.22 427.778 1074.56 426.124Z"/><path fill="#FF4500" d="M1074.56 426.124C1076.73 425.245 1078.71 423.183 1079.93 424.538C1080.49 425.982 1081.63 428.431 1082.92 429.224C1086.16 431.221 1084.64 435.336 1082.12 433.308C1079.88 431.506 1077.22 427.778 1074.56 426.124Z"/><path fill="#FF4500" d="M1133.09 341.651C1131.45 340.296 1125.42 335.458 1126.34 333.457C1129.16 331.371 1134.8 338.621 1136.52 340.557C1135.49 341.067 1135.39 341.132 1134.48 341.848C1133.97 343.309 1133.63 345.236 1132.59 346.1C1127.75 345.532 1123.51 345.316 1118.63 345.238C1117.59 345.221 1118.11 342.428 1118.31 342.39C1123.03 341.52 1128.13 342.485 1133.09 341.651Z"/><path fill="#FF4500" d="M1136.52 340.557L1136.72 340.818C1137.21 341.46 1139.18 343.462 1138.78 344.351C1138.17 345.709 1129.01 354.455 1128.49 354.459C1122.28 354.509 1131.42 347.12 1132.59 346.1C1133.63 345.236 1133.97 343.309 1134.48 341.848C1135.39 341.132 1135.49 341.067 1136.52 340.557Z"/><path fill="#9CA3B0" d="M812.606 375.97L812.765 375.411C815.013 367.677 822.92 367.885 825.757 375.629L825.681 376.23C823.74 384.279 815.577 383.687 812.569 376.911C809.33 378.292 787.305 378.095 782.481 378.129C782.485 385.687 783.087 400.04 782.559 406.84C786.943 406.977 790.286 407.19 794.643 407.662C794.58 416.578 794.608 425.494 794.729 434.41C785.659 434.297 776.588 434.254 767.518 434.282C767.638 425.144 767.71 416.605 767.426 407.466L780.423 406.799C780.084 397.151 780.385 385.774 780.401 375.995C788.437 375.006 804.01 375.656 812.606 375.97Z"/><path fill="#9CA3B0" d="M825.757 375.629C836.175 375.521 846.594 375.565 857.01 375.76C856.99 385.543 857.237 397.093 856.77 406.733C860.918 406.906 865.412 407.007 869.524 407.285C869.526 416.176 869.403 425.368 869.732 434.231C861.634 434.233 850.524 434.522 842.665 434.046C842.925 425.057 842.938 416.063 842.702 407.074L855.01 406.603C854.303 401.309 854.172 383.342 854.794 378.184C850.239 378.061 828.975 378.226 826.43 377.742C826.197 377.306 825.81 376.67 825.681 376.23L825.757 375.629Z"/><path fill="#9CA3B0" d="M805.824 322.387C812.849 321.878 825.683 321.702 832.635 322.397C832.635 331.2 832.506 340.318 832.862 349.091L820.398 349.306C820.527 353.795 820.952 362.918 819.166 367.012C818.109 363.32 818.204 353.589 818.698 349.743C813.892 348.961 810.344 349.228 805.841 348.729L805.824 322.387Z"/><path fill="#9CA3B0" d="M700.783 369.956C702.723 342.562 719.184 314.273 739.785 296.378C763.592 275.697 794.593 265.244 826.059 267.289C883.507 271.446 933.831 319.582 934.271 378.256L934.352 381.112C933.489 413.625 923.109 440.74 899.035 463.536C876.201 485.495 845.495 497.342 813.832 496.41C780.331 495.357 754.146 483.09 730.769 458.926C716.715 444.399 701.834 415.576 700.815 395.195C700.981 393.727 701.23 388.472 702.273 387.879C702.807 387.949 704.66 388.436 705.201 388.577C708.845 449.397 760.28 496.233 821.158 494.167C882.037 492.1 930.18 441.884 929.693 380.958C929.206 320.031 880.267 270.591 819.363 269.498C758.46 268.405 707.779 316.058 705.108 376.927C699.803 376.774 701.389 376.356 700.783 369.956Z"/><path fill="#3B30E9" d="M513.555 203.732C520.559 203.39 535.724 203.587 542.701 204.062C542.815 213.695 542.83 223.33 542.746 232.963C532.976 233.128 523.204 233.143 513.433 233.01C513.26 223.911 513.235 212.815 513.555 203.732ZM517.22 229.105C524.135 229.482 530.691 229.289 537.633 229.165C539.706 228.938 539.018 228.639 539.006 226.79C538.965 220.443 538.858 214.081 538.83 207.735C533.017 208.124 525.864 207.464 519.796 207.599C519.379 207.724 517.713 208.089 517.651 208.533C516.797 214.669 517.191 222.934 517.22 229.105Z"/><path fill="#FF4500" d="M1091.15 203.77C1099.76 203.611 1111.53 203.507 1120.08 204.093C1120.32 212.844 1120.36 224.274 1119.89 233.014C1111.26 233.448 1099.66 233.207 1090.86 233.162C1091.07 223.623 1090.55 212.966 1091.15 203.77ZM1094.55 228.805C1102.11 229.582 1108.8 229.964 1115.86 227.273C1116.45 225.687 1116.23 210.208 1116.23 207.474C1108.9 207.292 1101.88 207.442 1094.6 207.486C1094.64 214.592 1094.63 221.699 1094.55 228.805Z"/><path fill="#C8A96A" d="M223.569 203.755C232.537 203.718 243.79 203.247 252.543 203.841C252.637 213.159 251.924 224.009 252.466 233.144C243.055 233.261 232.827 233.388 223.466 233.344C223.378 223.481 223.413 213.617 223.569 203.755ZM227.171 229.069C236.064 229.655 240.185 229.517 248.965 229.352C249.688 226.001 249.299 211.492 249.245 207.537C241.487 207.193 234.805 207.412 227.13 207.495C227.237 214.868 227.177 221.73 227.171 229.069Z"/><path fill="#9CA3B0" d="M806.609 203.751C815.551 203.962 823.331 203.49 832.456 204.075C832.476 209.037 833.069 228.971 832.337 232.625C831.947 233.09 831.636 233.025 830.977 233.148C821.882 233.04 812.786 233.071 803.693 233.238C803.344 223.956 803.157 213.608 804.095 204.363C804.125 204.063 806.358 203.793 806.609 203.751ZM807.434 229.178C813.08 229.534 822.842 229.431 828.706 229.238C829.684 227.092 829.232 211.063 829.234 207.514C822.484 207.329 814.025 206.941 807.416 207.433C807.731 214.951 807.527 221.706 807.434 229.178Z"/><path fill="#646464" d="M776.349 538.576C788.234 537.849 789.183 536.85 794.565 547.423C799.722 542.504 799.729 541.671 807.409 543.655L807.801 543.753C808.771 546.565 808.834 547.139 808.927 550.015L808.306 550.208C806.704 550.185 805.103 550.122 803.505 550.017L801.299 550.088C800.523 550.113 799.263 550.095 798.72 550.773C798.368 551.211 798.256 551.795 798.421 552.332C799.095 554.582 802.744 554.58 804.553 554.221C806.7 552.846 806.336 552.737 808.495 553.794L808.688 554.514C806.281 555.389 803.667 556.167 801.28 556.039C797.324 555.828 796.871 553.476 795.064 550.864C794.626 550.231 790.363 554.104 789.482 554.565C785.778 556.5 780.443 555.999 776.331 555.876C776.268 550.109 776.274 544.342 776.349 538.576ZM789.504 552.178C793.672 540.53 786.134 541.304 778.54 540.384C778.576 541.541 778.819 545.865 778.562 546.83C776.415 554.905 781.345 556.319 789.504 552.178ZM806.898 547.742C804.544 546.935 801.211 546.322 798.819 547.159C799.803 549.55 804.667 548.143 806.898 547.742Z"/><path fill="#FEFEFE" fill-opacity="0.32156864" d="M798.819 547.159C801.211 546.322 804.544 546.935 806.898 547.742C804.667 548.143 799.803 549.55 798.819 547.159Z"/><path fill="#646464" fill-opacity="0.98823529" d="M237.177 543.349C240.807 544.954 242.995 541.987 246.209 543.101C247.527 543.558 249.149 547.833 251.474 546.403C258.82 541.884 257.872 541.482 264.787 544.875C267.349 546.132 271.562 541.47 279.226 544.095L277.743 546.606C270.648 542.309 265.971 548.763 278.221 548.959C278.498 550.04 279.713 553.127 280.367 553.978C275.5 556.544 272.091 557.396 267.027 554.56C269.884 552.475 270.967 553.92 274.032 554.371C277.173 554.833 278.921 550.6 273.88 550.834C271.636 549.929 270.246 549.434 267.93 548.742C269.239 543.371 265.918 546.862 265.939 546.452C265.806 548.977 265.75 550.907 264.934 553.575C265.108 554.014 265.595 554.236 266.008 554.515C258.937 555.082 260.996 557.746 252.049 554.048C252.732 551.16 252.548 548.246 249.999 546.561C248.985 550.121 247.465 554.258 252.049 554.048L248.695 554.944C245.323 552.554 248.84 549.572 246.458 546.104C244.311 544.815 241.052 544.501 239.581 546.782C237.97 549.282 241.023 554.634 237.492 555.417C236.995 553.325 237.047 552.905 237.034 550.806C237.074 548.266 237.065 545.904 237.177 543.349ZM260.217 554.07C261.863 553.559 263.106 552.2 263.466 550.515C263.827 548.829 263.25 547.081 261.958 545.941C260.665 544.801 258.858 544.448 257.232 545.018C254.779 545.877 253.467 548.542 254.281 551.01C255.095 553.478 257.735 554.839 260.217 554.07Z"/><path fill="#646464" d="M1134.19 544.042C1140.07 541.692 1138.43 548.299 1142.03 549.982C1144.78 551.267 1144.85 544.658 1147.9 543.158C1147.67 543.03 1148.8 543.573 1148.76 543.715C1147.11 549.162 1144.23 554.934 1141.57 560.028C1141.31 560.536 1140.07 560.697 1139.8 560.178C1139.08 558.835 1141.05 557.347 1141.11 555.963C1141.18 554.664 1140.48 552.635 1138.92 552.601C1135.8 552.75 1134.98 552.089 1132.79 554.347C1130.73 556.477 1125.1 557.071 1122.99 554.59C1121.94 553.357 1120.13 554.437 1119.05 553.121C1118.79 552.802 1118.36 552.555 1117.95 552.405L1117.87 552.447L1117.92 552.388C1117.62 552.955 1117.5 553.682 1117 554.099L1116.67 553.974C1116.13 553.071 1116.36 551.199 1116.16 550.081C1115.46 546.27 1116.02 542.378 1116.28 538.553C1116.29 538.341 1116.58 537.82 1116.78 537.813C1118.62 537.739 1117.32 543.336 1117.68 544.492C1118.01 545.811 1117.63 547.382 1118.66 548.342C1122.46 549.58 1120.85 539.235 1133.41 544.122L1134.19 544.042ZM1129.96 553.631C1132.18 552.501 1133.12 549.824 1132.1 547.552C1131.07 545.28 1128.44 544.216 1126.12 545.137C1124.53 545.771 1123.41 547.231 1123.21 548.938C1123.02 550.645 1123.77 552.322 1125.18 553.302C1126.59 554.283 1128.43 554.409 1129.96 553.631Z"/><path fill="#FEFEFE" d="M1134.19 544.042C1137.03 544.739 1137.51 548.142 1138.88 550.591C1140.03 552.641 1133.93 553.333 1134.65 550.426C1135.1 548.584 1134.03 545.784 1133.41 544.122L1134.19 544.042Z"/><path fill="#FF4500" d="M982.466 377.201L985.048 379.588L985.015 380C978.826 387.046 965.019 400.251 957.922 407.57C957.422 407.673 956.922 407.775 956.422 407.878L955.562 407.115C956.094 403.204 975.138 385.514 979.226 381.518C964.567 381.289 948.832 381.746 934.352 381.112L934.271 378.256C948.539 377.764 964.466 378.089 978.857 378.077C980.25 377.606 980.981 377.38 982.466 377.201Z"/><path fill="#646464" fill-opacity="0.95294118" d="M1088.1 542.836C1091 542.747 1094.18 542.472 1095.87 545.476C1096 545.778 1096.7 546.927 1097.09 546.956C1100.31 547.191 1098.51 544.77 1099.86 543.523C1100.52 542.907 1102.19 543.531 1101.17 544.481C1100.9 544.732 1100.73 545.383 1100.83 545.791C1100.83 545.794 1100.84 545.799 1100.85 545.798C1101.23 545.766 1101.63 545.388 1101.89 545.167C1103.17 544.082 1104.09 543.617 1105.75 543.24C1107.57 542.84 1109.47 543.186 1111.03 544.2C1114.82 546.707 1113.41 555.392 1108.09 555.794C1104.16 556.092 1101.04 554.169 1101.35 554.104C1101.23 554.473 1101.11 558.335 1101.05 559.174C1100.71 559.71 1100.51 560.064 1099.84 559.985C1098.54 559.002 1099.82 553.738 1098.97 552.282C1098.68 551.79 1097.4 552.711 1096.73 551.622C1095.29 549.3 1089.33 551.558 1086.97 550.356C1086.5 550.115 1086.07 549.708 1085.64 550.075C1084.45 554.746 1091.27 553.802 1092.97 553.756C1101.08 553.54 1088.62 558.555 1084.71 553.364C1083.65 551.953 1083.2 550.174 1083.46 548.426C1083.92 545.454 1085.91 544.364 1088.1 542.836ZM1108.06 553.961C1110.51 552.886 1111.63 550.048 1110.58 547.594C1109.54 545.14 1106.72 543.982 1104.25 544.997C1102.63 545.664 1101.49 547.153 1101.27 548.894C1101.05 550.635 1101.79 552.359 1103.19 553.407C1104.6 554.456 1106.46 554.667 1108.06 553.961ZM1092.16 548.691C1096.2 549.023 1094.86 544.922 1088.52 544.706C1082.33 550.859 1086.9 548.886 1092.16 548.691Z"/><path fill="#646464" d="M831.472 544.456C836.54 541.759 837.446 543.521 842.178 543.159C844.78 542.96 843.857 545.695 844.271 547.629C843.889 549.629 843.684 550.321 844.222 552.367C844.57 553.691 843.327 556.263 842.973 557.933C840.963 563.578 833.497 561.162 830.09 557.682C829.621 556.357 828.884 556.602 827.517 556.316C827.602 552.145 827.612 547.973 827.548 543.802C828.909 544.075 830.099 544.262 831.472 544.456ZM833.48 557.037C835.821 557.627 841.375 560.475 841.732 555.141C841.746 554.934 841.583 554.888 841.429 554.796C842.954 554.789 832.448 556.983 833.624 556.558L833.48 557.037ZM839.527 553.563C841.745 552.332 842.586 549.563 841.428 547.305C840.271 545.048 837.532 544.116 835.238 545.198C833.686 545.931 832.656 547.452 832.552 549.166C832.448 550.88 833.286 552.514 834.738 553.43C836.19 554.345 838.026 554.396 839.527 553.563Z"/><path fill="#FEFEFE" fill-opacity="0.25098041" d="M833.624 556.558C832.448 556.983 842.954 554.789 841.429 554.796C841.583 554.888 841.746 554.934 841.732 555.141C841.375 560.475 835.821 557.627 833.48 557.037L833.624 556.558Z"/><path fill="#FEFEFE" d="M827.548 543.802C828.909 544.075 830.099 544.262 831.472 544.456L831.383 544.834C829.434 552.849 830.597 550.833 833.624 556.558L833.48 557.037L830.09 557.682C829.621 556.357 828.884 556.602 827.517 556.316C827.602 552.145 827.612 547.973 827.548 543.802Z"/><path fill="#646464" fill-opacity="0.98823529" d="M1063.91 538.423C1069.89 538.399 1078.44 536.86 1080.54 544.487C1081.65 548.495 1080.53 550.159 1078.59 553.396C1076.7 554.38 1064.7 557.845 1064.22 554.997C1063.54 550.884 1063.93 543.008 1063.91 538.423ZM1066.2 553.815C1071.28 553.922 1072.67 554.471 1077.22 551.986C1081.58 541.31 1074.62 540.463 1066.28 540.529C1066.28 545.013 1066.16 549.312 1066.2 553.815Z"/><path fill="#646464" fill-opacity="0.98431373" d="M178.934 538.338C183.07 538.298 188.221 537.735 191.888 539.678C193.607 540.589 193.593 541.668 195.51 542.09C195.044 543.079 195.595 548.102 195.551 550.314C191.231 557.038 186.242 556.032 179.098 555.873L178.934 538.338ZM191.577 552.191C193.833 548.503 194.916 544.54 190.489 541.837C187.452 539.982 184.123 540.839 180.733 540.434C181.109 550.062 176.681 558.804 191.577 552.191Z"/><path fill="#646464" d="M490.542 544.281C490.792 543.804 492.615 539.948 492.41 540.194C493.089 540.015 492.921 539.992 493.516 540.264C494.054 540.994 493.783 541.938 494.249 542.691C495.147 543.198 497.277 542.682 498.41 542.995C499.078 543.18 502.027 543.189 502.037 542.198C502.042 541.713 502.305 540.155 503.202 540.436C503.991 540.684 503.723 541.987 504.171 542.731C504.454 542.863 507.873 543.533 508.493 543.671C506.77 544.098 506.776 544.307 505.854 545.857C502.683 543.022 504.357 551.543 504.043 553.017C503.472 555.69 512.831 550.453 509.927 547.055C511.086 545.092 511.284 544.715 509.276 543.682C513.499 543.099 512.914 545.072 516.869 542.418C518.852 542.671 519.82 542.76 521.77 543.34L522.587 543.345C523.264 543.411 524.842 543.388 525.362 543.752C525.791 544.865 525.511 553.504 525.684 555.736C523.544 555.391 523.298 555.337 521.199 555.51C519.65 555.851 519.771 554.201 519.532 553.03C519.659 551.613 520.079 547.686 519.095 546.584C518.129 545.502 513.132 545.229 512.956 547.351C512.441 553.549 515.853 547.222 515.59 553.492C511.959 554.029 513.229 556.009 511.555 555.954C506.994 555.802 504.025 557.361 501.129 553.571C501.844 552.912 503.182 549.005 500.61 549.143C504.422 545.408 500.867 545.368 498.098 544.697C497.382 544.754 494.126 544.86 493.782 545.045C492.34 547.362 494.317 558.068 496.919 552.83C497.654 554.127 497.645 554.19 498.761 555.152C497.357 557.903 492.63 555.293 490.962 553.623C491.946 551.24 493.381 545.681 490.542 544.281Z"/><path fill="#FEFEFE" d="M522.587 543.345C523.264 543.411 524.842 543.388 525.362 543.752C525.791 544.865 525.511 553.504 525.684 555.736C523.544 555.391 523.298 555.337 521.199 555.51C521.932 551.532 521.55 547.502 521.77 543.34L522.587 543.345Z"/><path fill="#C8A96A" d="M398.215 377.91C394.76 374.591 375.02 356.537 374.673 353.856L374.976 352.3L375.801 351.91C378.891 353.723 400.105 375.594 403.163 379.641C402.599 381.847 402.915 381.055 400.891 382.952C399.892 382.569 398.991 382.06 398.045 381.564C390.848 380.469 363.284 380.734 354.782 380.716C354.775 379.865 354.757 379.013 354.731 378.162C368.461 377.995 384.949 378.548 398.215 377.91Z"/><path fill="#646464" d="M219.816 545.339C224.081 542.299 227.498 542.853 233.159 543.192C234.782 543.413 235.545 543.374 237.177 543.349C237.065 545.904 237.074 548.266 237.034 550.806L234.035 551.93C234.421 555.131 232.404 553.902 233.502 557.114C232.087 557.054 226.419 565.376 217.912 557.96C221.513 556.937 224.933 558.212 227.486 556.437C227.494 556.371 227.502 556.305 227.51 556.239C227.212 555.968 222.885 555.471 221.917 555.245C220.545 553.749 220.089 553.312 218.994 551.595C219.199 548.918 219.35 547.92 219.816 545.339ZM230.508 550.014C230.664 544.601 228.525 546.203 224.082 545.934C221.437 545.774 221.605 549.498 221.748 551.018C224.441 550.207 227.698 549.367 230.508 550.014Z"/><path fill="#FEFEFE" d="M233.159 543.192C234.782 543.413 235.545 543.374 237.177 543.349C237.065 545.904 237.074 548.266 237.034 550.806L234.035 551.93C232.65 549.303 233.171 546.365 233.159 543.192Z"/><path fill="#FEFEFE" d="M221.748 551.018C224.441 550.207 227.698 549.367 230.508 550.014C229.291 554.666 224.276 554.802 221.748 551.018Z"/><path fill="#646464" fill-opacity="0.97647059" d="M525.099 537.668L525.766 537.698C528.509 537.722 526.603 543.195 527.981 543.89C533.618 540.467 536.669 545.795 540.506 544.326L540.296 544.828C536.061 554.783 545.083 553.56 541.499 543.901C546.856 542.181 542.465 548.999 544.644 552.356C545.995 554.437 550.159 555.283 551.864 553.489C554.358 550.864 551.605 547.743 554.146 543.765C553.84 544.283 553.841 544.927 554.15 545.444C553.884 548.48 553.979 551.684 553.953 554.755C552.926 555.491 545.458 556.613 544.424 555.191C540.488 549.78 538.043 555.652 533.52 555.999C531.103 556.38 528.372 554.649 527.806 554.836C527.163 556.034 527.092 555.953 525.684 555.736C525.511 553.504 525.791 544.865 525.362 543.752C524.842 543.388 523.264 543.411 522.587 543.345C524.766 542.687 525.538 543.437 524.885 540.886C525.704 539.55 525.652 539.112 525.099 537.668ZM533.482 554.312C535.17 553.872 536.488 552.555 536.931 550.867C537.374 549.18 536.872 547.385 535.618 546.172C534.365 544.96 532.554 544.518 530.883 545.018C528.362 545.772 526.909 548.407 527.618 550.942C528.327 553.477 530.936 554.976 533.482 554.312Z"/><path fill="#646464" d="M195.51 542.09C197.349 542.25 197.804 542.262 199.658 542.083L200.882 542.176C201.07 543.856 200.386 550.066 203.319 547.695C203.667 548.339 203.967 549.164 204.555 549.546C204.342 549.549 213.631 547.673 213.273 547.95C216.571 545.398 206.203 546 205.259 546.061L205.684 543.741C210.659 543.125 212.155 541.845 216.487 545.157C215.773 547.049 216.021 549.631 215.988 551.787C216.051 553.681 216.124 554.823 216.376 556.702C211.064 555.208 208.804 557.291 204.791 555.278C204.467 554.188 204.052 550.835 203.843 550.627C201.711 548.508 199.821 552.912 202.471 555.362C197.325 555.053 200.786 554.685 198.793 550.708C197.711 550.588 196.63 550.456 195.551 550.314C195.595 548.102 195.044 543.079 195.51 542.09ZM212.461 554.887C216.058 549.457 212.33 550.186 208.098 550.33C204.183 554.019 210.121 554.629 212.461 554.887Z"/><path fill="#FEFEFE" d="M195.51 542.09C197.349 542.25 197.804 542.262 199.658 542.083C199.295 544.66 199.317 549.008 198.793 550.708C197.711 550.588 196.63 550.456 195.551 550.314C195.595 548.102 195.044 543.079 195.51 542.09Z"/><path fill="#FEFEFE" fill-opacity="0.98431373" d="M208.098 550.33C212.33 550.186 216.058 549.457 212.461 554.887C210.121 554.629 204.183 554.019 208.098 550.33Z"/><path fill="#646464" d="M810.558 544.445C812.402 543.937 816.383 542.371 818.016 542.967C821.288 544.162 824.854 542.632 827.548 543.802C827.612 547.973 827.602 552.145 827.517 556.316L825.372 555.414L823.01 555.01C817.721 555.032 818.222 557.407 811.068 554.598C812.318 552.726 812.375 553.322 814.502 553.819C820.167 555.142 823.165 550.328 814.449 550.351L811.445 549.064C810.097 546.06 811.489 545.918 810.558 544.445ZM823.652 546.978C821.941 546.074 817.923 546.289 816.881 547.386C816.687 548.209 819.894 548.862 820.61 549.091C821.612 548.369 822.626 547.664 823.652 546.978Z"/><path fill="#FEFEFE" fill-opacity="0.11764706" d="M820.61 549.091C819.894 548.862 816.687 548.209 816.881 547.386C817.923 546.289 821.941 546.074 823.652 546.978C822.626 547.664 821.612 548.369 820.61 549.091Z"/><path fill="#FEFEFE" d="M823.652 546.978C823.454 546.042 822.716 544.567 823.759 544.141C826.262 545.05 825.381 552.939 825.372 555.414L823.01 555.01C820.323 553.864 824.233 552.995 820.61 549.091C821.612 548.369 822.626 547.664 823.652 546.978Z"/><path fill="#646464" d="M487.736 555.427C484.97 555.955 485.784 554.038 484.654 552.559C482.882 550.753 477.015 552.445 475.105 551.815C473.118 551.159 471.555 559.209 469.934 555.573C470.307 553.864 476.986 539.785 478.536 538.656C480.962 536.887 483.248 543.978 484.448 545.661L484.683 545.986C485.935 549.762 487.243 551.227 487.736 555.427ZM481.544 549.168C484.528 549.005 481.168 544.483 480.216 543.411C479.845 543.985 479.474 544.559 479.103 545.133C478.929 546.019 476.504 546.955 476.675 547.681C476.846 548.409 480.87 549.011 481.544 549.168Z"/><path fill="#FEFEFE" fill-opacity="0.027450981" d="M480.216 543.411C481.168 544.483 484.528 549.005 481.544 549.168C480.87 549.011 476.846 548.409 476.675 547.681C476.504 546.955 478.929 546.019 479.103 545.133C479.474 544.559 479.845 543.985 480.216 543.411Z"/><path fill="#646464" fill-opacity="0.98823529" d="M568.996 544.402C571.543 542.144 576.525 542.197 578.862 544.848C580.597 546.816 580.184 550.014 580.02 552.48C577.743 552.01 576.009 551.427 573.819 552.546C573.041 555.06 577.818 553.689 579.586 553.709C575.087 557.887 572.865 555.472 567.754 554.629C567.686 553.169 567.804 553.201 566.987 552.022C566.669 549.499 566.988 548.274 566.98 545.809C567.655 545.329 568.306 544.861 568.996 544.402ZM576.821 548.41C580.827 546.42 573.106 544.736 571.753 544.58C567.449 549.552 572.223 548.219 576.821 548.41Z"/><path fill="#FEFEFE" fill-opacity="0.039215688" d="M571.753 544.58C573.106 544.736 580.827 546.42 576.821 548.41C572.223 548.219 567.449 549.552 571.753 544.58Z"/><path fill="#3B30E9" d="M687.772 377.736C679.737 370.142 671.707 361.764 664.149 353.784C663.923 353.545 665.671 351.647 666.08 351.981C675.186 359.419 683.087 369.025 691.908 377.079C690.472 377.357 689.23 377.546 687.772 377.736Z"/><path fill="#3B30E9" d="M688.379 381.96C689.754 381.871 691.127 381.764 692.499 381.638C683.991 390.537 675.231 399.473 666.461 408.037C666.226 408.266 664.107 406.207 664.419 405.854C671.618 397.697 680.267 389.269 688.379 381.96Z"/><path fill="#FF4500" d="M978.857 378.077C971.031 370.218 962.999 362.446 955.349 354.47C954.6 353.689 956.526 351.652 956.817 351.915C965.457 359.719 974.241 368.782 982.466 377.201C980.981 377.38 980.25 377.606 978.857 378.077Z"/><path fill="#646464" d="M283.721 544.242C290.012 540.971 294.722 543.732 295.198 550.701C293.751 550.268 284.134 549.274 283.847 551.075C283.765 551.582 283.908 552.099 284.239 552.49C286.46 555.158 290.865 553.956 293.781 553.689C290.649 557.583 285.856 555.81 282.199 553.954C281.476 550.6 282.297 549.006 279.186 548.608C280.589 547.773 281.012 548.157 281.983 546.869C282.635 545.79 282.971 545.237 283.721 544.242Z"/><path fill="#C8A96A" fill-opacity="0.98431373" d="M398.045 381.564C398.991 382.06 399.892 382.569 400.891 382.952C394.59 390.028 383.054 400.549 376.008 407.564C375.562 408.007 373.712 406.714 374.041 406.332C381.331 397.85 389.853 389.31 398.045 381.564Z"/><path fill="#646464" fill-opacity="0.98039216" d="M847.776 547.934C847.948 546.671 847.95 543.25 849.785 543.275C850.149 543.28 850.282 543.939 850.274 544.208C850.391 544.465 850.436 544.621 850.69 544.741C851.7 544.623 856.473 540.512 859.021 544.508C860.87 547.407 860.57 553.923 858.652 556.658C858.222 553.071 859.235 551.087 856.817 548.708L856.517 548.409C862.094 547.244 851.532 542.418 850.199 547.515C849.572 549.91 852.615 555.501 848.424 555.827C848.487 554.139 848.711 549.024 847.776 547.934Z"/><path fill="#FEFEFE" fill-opacity="0.40000001" d="M484.683 545.986C488.047 544.535 486.867 544.76 490.542 544.281C493.381 545.681 491.946 551.24 490.962 553.623C488.858 553.743 488.64 553.592 487.736 555.427C487.243 551.227 485.935 549.762 484.683 545.986Z"/><path fill="#646464" fill-opacity="0.98431373" d="M556.894 543.637C560.355 541.541 557.329 540.564 559.98 539.319C561.421 540.08 560.57 541.722 561.385 542.965C562.447 543.243 564.178 543.519 565.503 543.849C564.7 544.442 563.858 544.99 563.028 545.545C559.26 543.198 561.069 552.355 561.834 552.793C563.696 553.788 564.566 554.234 566.282 555.463C560.05 557.033 562.083 554.886 557.934 554.294C559.192 553.537 559 553.522 558.915 552.049C559.035 549.489 559.956 545.703 557.198 544.763C557.238 544.363 557.13 543.962 556.894 543.637Z"/><path fill="#FEFEFE" fill-opacity="0.98431373" d="M266.008 554.515C265.595 554.236 265.108 554.014 264.934 553.575C265.75 550.907 265.806 548.977 265.939 546.452C265.918 546.862 269.239 543.371 267.93 548.742C265.777 553.673 271.032 551.753 273.88 550.834C278.921 550.6 277.173 554.833 274.032 554.371C270.967 553.92 269.884 552.475 267.027 554.56L266.008 554.515Z"/><path fill="#FEFEFE" fill-opacity="0.14117648" d="M515.59 553.492C515.853 547.222 512.441 553.549 512.956 547.351C513.132 545.229 518.129 545.502 519.095 546.584C520.079 547.686 519.659 551.613 519.532 553.03C517.852 553.023 517.443 553.573 515.59 553.492Z"/><path fill="#FEFEFE" fill-opacity="0.11372549" d="M509.927 547.055C512.831 550.453 503.472 555.69 504.043 553.017C504.357 551.543 502.683 543.022 505.854 545.857C507.205 546.279 508.562 546.679 509.927 547.055Z"/><path fill="#FEFEFE" fill-opacity="0.95686275" d="M293.781 553.689C290.865 553.956 286.46 555.158 284.239 552.49C283.908 552.099 283.765 551.582 283.847 551.075C284.134 549.274 293.751 550.268 295.198 550.701C294.702 551.68 294.245 552.693 293.781 553.689Z"/><path fill="#ADADB0" fill-opacity="0.64313728" d="M700.815 395.195C699.804 390.238 699.921 374.827 700.783 369.956C701.389 376.356 699.803 376.774 705.108 376.927C705.091 377.305 705.077 377.683 705.064 378.061C701.45 379.177 701.821 381.459 705.004 382.781C705.02 384.714 705.085 386.647 705.201 388.577C704.66 388.436 702.807 387.949 702.273 387.879C701.23 388.472 700.981 393.727 700.815 395.195Z"/><path fill="#FEFEFE" fill-opacity="0.98431373" d="M814.449 550.351C823.165 550.328 820.167 555.142 814.502 553.819C812.375 553.322 812.318 552.726 811.068 554.598L808.688 554.514L808.495 553.794C808.279 552.738 808.204 552.704 808.268 551.669C811.376 551.336 811.584 551.669 814.449 550.351Z"/><path fill="#FEFEFE" fill-opacity="0.54901963" d="M557.198 544.763C559.956 545.703 559.035 549.489 558.915 552.049C556.792 551.389 557.518 549.717 555.206 550.967L555.055 551.874L555.049 551.691C554.977 553.016 554.981 552.817 555.344 554.087L553.953 554.755C553.979 551.684 553.884 548.48 554.15 545.444C554.513 546.054 555.227 546.361 555.92 546.206C556.613 546.052 557.128 545.47 557.198 544.763Z"/><path fill="#FEFEFE" fill-opacity="0.98823529" d="M856.517 548.409L856.817 548.708C859.235 551.087 858.222 553.071 858.652 556.658C856.075 555.816 854.145 554.364 852.29 552.268C850.739 550.516 855.155 549.054 856.517 548.409Z"/><path fill="#FEFEFE" fill-opacity="0.019607844" d="M278.221 548.959C265.971 548.763 270.648 542.309 277.743 546.606C279.403 546.489 280.324 546.681 281.983 546.869C281.012 548.157 280.589 547.773 279.186 548.608L278.221 548.959Z"/><path fill="#FEFEFE" fill-opacity="0.72941178" d="M846.034 545.975L847.776 547.934C848.711 549.024 848.487 554.139 848.424 555.827C845.943 556.338 845.229 556.935 842.973 557.933C843.327 556.263 844.57 553.691 844.222 552.367C843.684 550.321 843.889 549.629 844.271 547.629L845.481 547.18C845.413 549.098 844.976 552.12 845.594 553.802C845.719 554.15 845.985 554.429 846.326 554.57C846.377 554.542 846.428 554.514 846.478 554.486L846.445 554.413L846.641 554.493C848.942 551.424 846.242 548.822 846.034 545.975Z"/><path fill="#3B30E9" d="M691.908 377.079C694.263 379.016 695.689 379.633 692.499 381.638C691.127 381.764 689.754 381.871 688.379 381.96L688.242 381.381C686.657 380.148 687.42 380.22 687.607 378.166L687.772 377.736C689.23 377.546 690.472 377.357 691.908 377.079Z"/><path fill="#FEFEFE" fill-opacity="0.031372551" d="M205.259 546.061C206.203 546 216.571 545.398 213.273 547.95C213.631 547.673 204.342 549.549 204.555 549.546C203.967 549.164 203.667 548.339 203.319 547.695L205.259 546.061Z"/><path fill="#FEFEFE" fill-opacity="0.94117647" d="M804.553 554.221C802.744 554.58 799.095 554.582 798.421 552.332C798.256 551.795 798.368 551.211 798.72 550.773C799.263 550.095 800.523 550.113 801.299 550.088L803.505 550.017C806.359 551.903 805.108 551.199 804.553 554.221Z"/><path fill="#FEFEFE" fill-opacity="0.98431373" d="M200.882 542.176C203.712 542.069 203.364 542.083 205.684 543.741L205.259 546.061L203.319 547.695C200.386 550.066 201.07 543.856 200.882 542.176Z"/><path fill="#FEFEFE" fill-opacity="0.98823529" d="M215.988 551.787C217 551.755 217.986 551.672 218.994 551.595C220.089 553.312 220.545 553.749 221.917 555.245C220.253 555.826 218.727 556.416 217.034 556.944L216.376 556.702C216.124 554.823 216.051 553.681 215.988 551.787Z"/><path fill="#FEFEFE" fill-opacity="0.97647059" d="M216.487 545.157C217.596 545.226 218.706 545.287 219.816 545.339C219.35 547.92 219.199 548.918 218.994 551.595C217.986 551.672 217 551.755 215.988 551.787C216.021 549.631 215.773 547.049 216.487 545.157Z"/><path fill="#FEFEFE" fill-opacity="0.94901961" d="M500.61 549.143C503.182 549.005 501.844 552.912 501.129 553.571L498.761 555.152C497.645 554.19 497.654 554.127 496.919 552.83C497.642 551.703 498.354 550.569 499.056 549.428L500.61 549.143Z"/><path fill="#FEFEFE" fill-opacity="0.98039216" d="M541.499 543.901C545.083 553.56 536.061 554.783 540.296 544.828L540.506 544.326L541.499 543.901Z"/><path fill="#FEFEFE" fill-opacity="0.98431373" d="M252.049 554.048C247.465 554.258 248.985 550.121 249.999 546.561C252.548 548.246 252.732 551.16 252.049 554.048Z"/><path fill="#FEFEFE" fill-opacity="0.027450981" d="M518.344 540.463C519.882 540.664 521.178 540.802 522.727 540.9L524.885 540.886C525.538 543.437 524.766 542.687 522.587 543.345L521.77 543.34C519.82 542.76 518.852 542.671 516.869 542.418C517.413 541.656 517.741 541.184 518.344 540.463Z"/><path fill="#FEFEFE" fill-opacity="0.8392157" d="M237.034 550.806C237.047 552.905 236.995 553.325 237.492 555.417C236.168 555.997 234.838 556.563 233.502 557.114C232.404 553.902 234.421 555.131 234.035 551.93L237.034 550.806Z"/><path fill="#FEFEFE" fill-opacity="0.047058824" d="M221.917 555.245C222.885 555.471 227.212 555.968 227.51 556.239C227.502 556.305 227.494 556.371 227.486 556.437C224.933 558.212 221.513 556.937 217.912 557.96L217.034 556.944C218.727 556.416 220.253 555.826 221.917 555.245Z"/><path fill="#FEFEFE" fill-opacity="0.96470588" d="M202.471 555.362C199.821 552.912 201.711 548.508 203.843 550.627C204.052 550.835 204.467 554.188 204.791 555.278L202.471 555.362Z"/><path fill="#FEFEFE" fill-opacity="0.039215688" d="M498.098 544.697C500.867 545.368 504.422 545.408 500.61 549.143L499.056 549.428C498.593 547.313 498.848 546.664 498.098 544.697Z"/><path fill="#FEFEFE" fill-opacity="0.83529413" d="M845.481 547.18C845.644 546.78 845.797 546.331 846.034 545.975C846.242 548.822 848.942 551.424 846.641 554.493L846.445 554.413L846.478 554.486C846.428 554.514 846.377 554.542 846.326 554.57C845.985 554.429 845.719 554.15 845.594 553.802C844.976 552.12 845.413 549.098 845.481 547.18Z"/><path fill="#FEFEFE" fill-opacity="0.96078432" d="M279.186 548.608C282.297 549.006 281.476 550.6 282.199 553.954L280.367 553.978C279.713 553.127 278.498 550.04 278.221 548.959L279.186 548.608Z"/><path fill="#FEFEFE" fill-opacity="0.69411767" d="M561.834 552.793C563.305 550.96 564.717 551.788 566.987 552.022C567.804 553.201 567.686 553.169 567.754 554.629L566.282 555.463C564.566 554.234 563.696 553.788 561.834 552.793Z"/><path fill="#FEFEFE" fill-opacity="0.98431373" d="M807.801 543.753L810.558 544.445C811.489 545.918 810.097 546.06 811.445 549.064C810.628 549.388 809.762 549.752 808.927 550.015C808.834 547.139 808.771 546.565 807.801 543.753Z"/><path fill="#FEFEFE" fill-opacity="0.78039217" d="M803.505 550.017C805.103 550.122 806.704 550.185 808.306 550.208L808.268 551.669C808.204 552.704 808.279 552.738 808.495 553.794C806.336 552.737 806.7 552.846 804.553 554.221C805.108 551.199 806.359 551.903 803.505 550.017Z"/><path fill="#ADADB0" fill-opacity="0.49019608" d="M705.004 382.781C701.821 381.459 701.45 379.177 705.064 378.061C705.011 379.633 704.991 381.207 705.004 382.781Z"/><path fill="#FEFEFE" fill-opacity="0.12941177" d="M579.586 553.709C577.818 553.689 573.041 555.06 573.819 552.546C576.009 551.427 577.743 552.01 580.02 552.48C579.822 552.955 579.74 553.223 579.586 553.709Z"/><path fill="#FEFEFE" fill-opacity="0.87058824" d="M555.344 554.087C554.981 552.817 554.977 553.016 555.049 551.691L555.055 551.874L555.206 550.967C557.518 549.717 556.792 551.389 558.915 552.049C559 553.522 559.192 553.537 557.934 554.294L555.344 554.087Z"/><path fill="#FEFEFE" fill-opacity="0.95294118" d="M508.493 543.671L509.276 543.682C511.284 544.715 511.086 545.092 509.927 547.055C508.562 546.679 507.205 546.279 505.854 545.857C506.776 544.307 506.77 544.098 508.493 543.671Z"/><path fill="#FEFEFE" fill-opacity="0.24705882" d="M811.445 549.064L814.449 550.351C811.584 551.669 811.376 551.336 808.268 551.669L808.306 550.208L808.927 550.015C809.762 549.752 810.628 549.388 811.445 549.064Z"/><path fill="#FEFEFE" fill-opacity="0.7647059" d="M279.226 544.095C281.205 544.344 281.747 544.315 283.721 544.242C282.971 545.237 282.635 545.79 281.983 546.869C280.324 546.681 279.403 546.489 277.743 546.606L279.226 544.095Z"/><path fill="#FEFEFE" fill-opacity="0.95294118" d="M522.096 537.661L525.099 537.668C525.652 539.112 525.704 539.55 524.885 540.886L522.727 540.9C522.462 539.815 522.033 538.788 522.096 537.661Z"/><path fill="#FEFEFE" fill-opacity="0.72941178" d="M554.146 543.765C554.427 543.288 554.931 542.984 555.485 542.958C556.039 542.932 556.569 543.187 556.894 543.637C557.13 543.962 557.238 544.363 557.198 544.763C557.128 545.47 556.613 546.052 555.92 546.206C555.227 546.361 554.513 546.054 554.15 545.444C553.841 544.927 553.84 544.283 554.146 543.765Z"/><path fill="#646464" d="M198.748 538.015C201.923 538.853 201.495 539.072 201.568 542.19C198.316 542.072 198.987 540.97 198.748 538.015Z"/><path fill="#646464" d="M825.192 538.694C825.725 537.981 826.737 537.838 827.446 538.376C828.156 538.914 828.292 539.927 827.75 540.634C827.213 541.334 826.21 541.469 825.507 540.936C824.803 540.402 824.662 539.4 825.192 538.694Z"/><path fill="#646464" d="M522.096 537.661C522.033 538.788 522.462 539.815 522.727 540.9C521.178 540.802 519.882 540.664 518.344 540.463C519.831 538.573 519.766 538.15 522.096 537.661Z"/><path fill="#FEFEFE" fill-opacity="0.73725492" d="M565.503 543.849C566.666 544.043 567.83 544.227 568.996 544.402C568.306 544.861 567.655 545.329 566.98 545.809C565.273 545.844 564.685 545.761 563.028 545.545C563.858 544.99 564.7 544.442 565.503 543.849Z"/><path fill="#FEFEFE" fill-opacity="0.082352944" d="M985.048 379.588L989.38 378.085C989.347 379.005 989.325 379.926 989.313 380.846L985.015 380L985.048 379.588Z"/></svg>